HIERARCHY
ROOT Hips
{
	OFFSET 0.000000 35.082581 0.000000
	CHANNELS 6 Xposition Yposition Zposition Xrotation Yrotation Zrotation 
	JOINT Spine
	{
		OFFSET 0.000000 6.876099 0.125700
		CHANNELS 3 Xrotation Yrotation Zrotation
		JOINT Spine1
		{
			OFFSET 0.000000 5.730043 0.104720
			CHANNELS 3 Xrotation Yrotation Zrotation
			JOINT Spine1_split
			{
				OFFSET 0.000000 5.730043 0.104720
				CHANNELS 3 Xrotation Yrotation Zrotation
				JOINT Spine2
				{
					OFFSET 0.000000 5.730043 0.104720
					CHANNELS 3 Xrotation Yrotation Zrotation
					JOINT Neck
					{
						OFFSET 0.000000 10.314075 0.188496
						CHANNELS 3 Xrotation Yrotation Zrotation
						JOINT Head
						{
							OFFSET 0.000000 7.643700 -2.377400
							CHANNELS 3 Xrotation Yrotation Zrotation
							JOINT HeadTop_End
							{
								OFFSET 0.000000 43.788605 -13.619600
								CHANNELS 3 Xrotation Yrotation Zrotation
								End Site
								{
									OFFSET 0.000000 0.000000 0.000000
								}
							}
						}
					}
					JOINT LeftShoulder
					{
						OFFSET 2.196100 4.412489 0.087492
						CHANNELS 3 Xrotation Yrotation Zrotation
						JOINT LeftShoulder_split
						{
							OFFSET 2.196100 4.412489 0.087492
							CHANNELS 3 Xrotation Yrotation Zrotation
							JOINT LeftArm
							{
								OFFSET 8.771219 -2.981674 -0.026999
								CHANNELS 3 Xrotation Yrotation Zrotation
								JOINT LeftForeArm
								{
									OFFSET 8.512804 0.000000 -0.000000
									CHANNELS 3 Xrotation Yrotation Zrotation
									JOINT LeftHand
									{
										OFFSET 18.484802 0.000000 -0.000000
										CHANNELS 3 Xrotation Yrotation Zrotation
										JOINT LeftHandThumb1
										{
											OFFSET 2.499420 -1.158070 2.653252
											CHANNELS 3 Xrotation Yrotation Zrotation
											JOINT LeftHandThumb2
											{
												OFFSET 2.370079 -1.368366 1.368366
												CHANNELS 3 Xrotation Yrotation Zrotation
												JOINT LeftHandThumb3
												{
													OFFSET 2.676727 -1.545410 1.545409
													CHANNELS 3 Xrotation Yrotation Zrotation
													JOINT LeftHandThumb4
													{
														OFFSET 1.692226 -0.977005 0.977007
														CHANNELS 3 Xrotation Yrotation Zrotation
														End Site
														{
															OFFSET 0.000000 0.000000 0.000000
														}
													}
												}
											}
										}
										JOINT LeftHandIndex1
										{
											OFFSET 7.924831 -0.457527 2.345128
											CHANNELS 3 Xrotation Yrotation Zrotation
											JOINT LeftHandIndex2
											{
												OFFSET 3.643303 0.000000 0.000000
												CHANNELS 3 Xrotation Yrotation Zrotation
												JOINT LeftHandIndex3
												{
													OFFSET 3.810799 0.000000 0.000000
													CHANNELS 3 Xrotation Yrotation Zrotation
													JOINT LeftHandIndex4
													{
														OFFSET 2.403702 0.000000 0.000000
														CHANNELS 3 Xrotation Yrotation Zrotation
														End Site
														{
															OFFSET 0.000000 0.000000 0.000000
														}
													}
												}
											}
										}
										JOINT LeftHandMiddle1
										{
											OFFSET 8.563995 0.000000 -0.000000
											CHANNELS 3 Xrotation Yrotation Zrotation
											JOINT LeftHandMiddle2
											{
												OFFSET 3.861618 0.000000 0.000000
												CHANNELS 3 Xrotation Yrotation Zrotation
												JOINT LeftHandMiddle3
												{
													OFFSET 3.701603 0.000000 0.000000
													CHANNELS 3 Xrotation Yrotation Zrotation
													JOINT LeftHandMiddle4
													{
														OFFSET 2.322544 0.000000 0.000000
														CHANNELS 3 Xrotation Yrotation Zrotation
														End Site
														{
															OFFSET 0.000000 0.000000 0.000000
														}
													}
												}
											}
										}
										JOINT LeftHandRing1
										{
											OFFSET 8.426460 -0.424637 -3.286992
											CHANNELS 3 Xrotation Yrotation Zrotation
											JOINT LeftHandRing2
											{
												OFFSET 3.126408 0.000000 0.000000
												CHANNELS 3 Xrotation Yrotation Zrotation
												JOINT LeftHandRing3
												{
													OFFSET 3.085026 0.000000 0.000000
													CHANNELS 3 Xrotation Yrotation Zrotation
													JOINT LeftHandRing4
													{
														OFFSET 1.644005 0.000000 0.000000
														CHANNELS 3 Xrotation Yrotation Zrotation
														End Site
														{
															OFFSET 0.000000 0.000000 0.000000
														}
													}
												}
											}
										}
									}
								}
							}
						}
					}
					JOINT RightShoulder
					{
						OFFSET -2.196100 4.412496 0.070690
						CHANNELS 3 Xrotation Yrotation Zrotation
						JOINT RightShoulder_split
						{
							OFFSET -2.196100 4.412496 0.070690
							CHANNELS 3 Xrotation Yrotation Zrotation
							JOINT RightArm
							{
								OFFSET -8.771282 -2.981682 -0.094208
								CHANNELS 3 Xrotation Yrotation Zrotation
								JOINT RightForeArm
								{
									OFFSET -8.494598 0.000000 0.000000
									CHANNELS 3 Xrotation Yrotation Zrotation
									JOINT RightHand
									{
										OFFSET -18.483803 0.000000 0.000001
										CHANNELS 3 Xrotation Yrotation Zrotation
										JOINT RightHandThumb1
										{
											OFFSET -2.527351 -1.008072 2.575253
											CHANNELS 3 Xrotation Yrotation Zrotation
											JOINT RightHandThumb2
											{
												OFFSET -2.321518 -1.340328 1.340329
												CHANNELS 3 Xrotation Yrotation Zrotation
												JOINT RightHandThumb3
												{
													OFFSET -2.657753 -1.534454 1.534455
													CHANNELS 3 Xrotation Yrotation Zrotation
													JOINT RightHandThumb4
													{
														OFFSET -1.807510 -1.043568 1.043567
														CHANNELS 3 Xrotation Yrotation Zrotation
														End Site
														{
															OFFSET 0.000000 0.000000 0.000000
														}
													}
												}
											}
										}
										JOINT RightHandIndex1
										{
											OFFSET -8.811420 0.015533 2.887987
											CHANNELS 3 Xrotation Yrotation Zrotation
											JOINT RightHandIndex2
											{
												OFFSET -3.537502 0.000000 0.000000
												CHANNELS 3 Xrotation Yrotation Zrotation
												JOINT RightHandIndex3
												{
													OFFSET -3.356201 0.000000 0.000000
													CHANNELS 3 Xrotation Yrotation Zrotation
													JOINT RightHandIndex4
													{
														OFFSET -1.933098 0.000000 0.000000
														CHANNELS 3 Xrotation Yrotation Zrotation
														End Site
														{
															OFFSET 0.000000 0.000000 0.000000
														}
													}
												}
											}
										}
										JOINT RightHandMiddle1
										{
											OFFSET -8.178135 0.000000 0.000000
											CHANNELS 3 Xrotation Yrotation Zrotation
											JOINT RightHandMiddle2
											{
												OFFSET -3.901302 0.000000 0.000000
												CHANNELS 3 Xrotation Yrotation Zrotation
												JOINT RightHandMiddle3
												{
													OFFSET -3.909599 0.000000 0.000000
													CHANNELS 3 Xrotation Yrotation Zrotation
													JOINT RightHandMiddle4
													{
														OFFSET -2.376003 0.000000 0.000000
														CHANNELS 3 Xrotation Yrotation Zrotation
														End Site
														{
															OFFSET 0.000000 0.000000 0.000000
														}
													}
												}
											}
										}
										JOINT RightHandRing1
										{
											OFFSET -7.559013 0.014137 -2.865403
											CHANNELS 3 Xrotation Yrotation Zrotation
											JOINT RightHandRing2
											{
												OFFSET -3.449306 0.000000 0.000000
												CHANNELS 3 Xrotation Yrotation Zrotation
												JOINT RightHandRing3
												{
													OFFSET -3.362106 0.000000 0.000000
													CHANNELS 3 Xrotation Yrotation Zrotation
													JOINT RightHandRing4
													{
														OFFSET -2.076401 0.000000 0.000000
														CHANNELS 3 Xrotation Yrotation Zrotation
														End Site
														{
															OFFSET 0.000000 0.000000 0.000000
														}
													}
												}
											}
										}
									}
								}
							}
						}
					}
				}
			}
		}
	}
	JOINT LeftUpLeg
	{
		OFFSET 10.205400 -3.823500 0.155100
		CHANNELS 3 Xrotation Yrotation Zrotation
		JOINT LeftLeg
		{
			OFFSET 0.708757 -12.982077 0.567790
			CHANNELS 3 Xrotation Yrotation Zrotation
			JOINT LeftFoot
			{
				OFFSET -0.708756 -10.717838 -2.184338
				CHANNELS 3 Xrotation Yrotation Zrotation
				JOINT LeftToeBase
				{
					OFFSET 0.108149 -7.191104 7.560241
					CHANNELS 3 Xrotation Yrotation Zrotation
					JOINT LeftToe_End
					{
						OFFSET 0.070230 0.081724 4.490308
						CHANNELS 3 Xrotation Yrotation Zrotation
						End Site
						{
							OFFSET 0.000000 0.000000 0.000000
						}
					}
				}
			}
		}
	}
	JOINT RightUpLeg
	{
		OFFSET -10.205400 -3.823500 0.005500
		CHANNELS 3 Xrotation Yrotation Zrotation
		JOINT RightLeg
		{
			OFFSET -0.708756 -12.982134 0.610632
			CHANNELS 3 Xrotation Yrotation Zrotation
			JOINT RightFoot
			{
				OFFSET 0.708754 -10.717769 -1.945823
				CHANNELS 3 Xrotation Yrotation Zrotation
				JOINT RightToeBase
				{
					OFFSET -0.108140 -7.191069 7.372968
					CHANNELS 3 Xrotation Yrotation Zrotation
					JOINT RightToe_End
					{
						OFFSET -0.070227 0.081735 4.479403
						CHANNELS 3 Xrotation Yrotation Zrotation
						End Site
						{
							OFFSET 0.000000 0.000000 0.000000
						}
					}
				}
			}
		}
	}
}
MOTION
Frames: 4
Frame Time: 0.016667
5.744258 24.517406 -2.077066 43.858140 -82.068254 44.418585 1.315389 4.406599 3.266761 1.685963 3.692171 0.960058 0.000000 0.000000 0.000000 1.613179 3.756763 0.980632 -3.532981 9.176800 -1.132673 -3.451492 43.959787 -1.786093 -0.000001 -0.000000 -0.000000 0.705585 8.677169 -8.120508 0.000000 0.000000 0.000000 -7.703532 12.546978 -67.827788 -0.000040 -117.532461 -0.000030 -2.759525 -37.106167 22.103066 -9.674882 0.269252 1.575502 21.035321 31.264716 -3.204850 -14.510768 -15.900098 5.153353 -0.000004 0.000000 -0.000004 -2.849092 3.303449 -72.216341 3.992240 5.548941 -71.446716 1.747150 4.174039 -45.411018 -0.000000 -0.000002 -0.000001 -2.178485 6.191029 -74.467831 5.106541 5.803667 -82.676933 3.445837 5.335401 -65.690137 0.000004 -0.000002 -0.000005 -2.999862 7.957892 -88.252895 5.714710 5.849482 -88.662358 2.469268 4.777558 -54.644536 -0.000000 -0.000002 0.000002 0.563295 13.344013 9.556970 0.000000 0.000000 0.000000 -10.871311 35.898641 46.529410 -0.000120 101.265143 0.000094 18.782686 12.790215 -36.872418 -6.752294 7.209114 -18.581265 21.136587 -37.182522 16.259001 -4.776910 10.706932 -21.836998 0.000000 0.000000 -0.000000 -3.537844 10.196870 38.911437 4.634939 -4.657117 89.726187 1.152132 -3.068491 41.151459 0.000001 0.000002 -0.000000 -5.052445 -1.676053 58.106359 3.618992 -4.540242 77.105773 1.323044 -3.253425 44.250330 0.000001 0.000003 -0.000000 -3.873847 -2.931528 61.582686 4.483707 -4.653930 87.863028 1.062203 -2.962576 39.442290 0.000001 -0.000000 -0.000001 -28.458680 -20.719864 41.433266 52.285566 -15.119508 8.645975 -26.855074 6.526718 -36.823285 -13.959553 -0.000005 -0.000006 -0.000000 0.000000 -0.000001 -15.564956 13.916159 -46.140448 49.724750 12.201892 -8.621407 -39.260668 -7.909596 37.897714 -8.844696 0.000053 -0.000001 0.000000 -0.000001 0.000000 
5.629353 24.660938 -2.081372 34.122607 -81.447766 34.519025 1.311004 4.219925 3.497561 1.674577 3.524483 1.048240 0.000000 0.000000 0.000000 1.609789 3.584471 1.064619 -2.945497 8.978270 -1.211498 -3.441612 42.960408 -1.394687 -0.000001 0.000001 -0.000000 0.654796 7.533273 -7.402807 0.000000 0.000000 0.000000 -5.403854 12.550898 -68.677757 -0.000009 -118.249713 -0.000013 -3.995481 -36.802408 21.789509 -9.674878 0.269253 1.575501 21.019292 31.210293 -3.199419 -14.525690 -15.951248 5.140690 -0.000009 -0.000003 -0.000000 -2.853332 3.302262 -72.160908 3.986857 5.547143 -71.391132 1.743130 4.170077 -45.355670 -0.000003 0.000001 0.000001 -2.182416 6.183220 -74.413183 5.100839 5.802929 -82.620530 3.440670 5.333071 -65.634655 -0.000004 -0.000003 -0.000005 -3.005568 7.949404 -88.198363 5.708901 5.849342 -88.605428 2.464656 4.774293 -54.589163 0.000000 -0.000002 -0.000001 0.654573 13.133321 8.324383 0.000000 0.000000 0.000000 -11.309122 35.091388 48.626856 -0.000047 101.896307 0.000007 19.025804 12.710614 -36.950026 -6.752294 7.209112 -18.581260 21.103556 -37.132112 16.238835 -4.776786 10.760581 -21.828581 0.000002 0.000001 0.000002 -3.540187 10.199001 38.856489 4.630428 -4.657072 89.670637 1.149153 -3.065112 41.096149 0.000001 -0.000001 -0.000001 -5.052158 -1.666591 58.052462 3.614518 -4.539196 77.048960 1.319907 -3.250200 44.195070 0.000001 0.000001 -0.000001 -3.874696 -2.923216 61.528373 4.479152 -4.653764 87.806624 1.059353 -2.959122 39.387037 0.000000 -0.000000 0.000001 -28.575129 -20.727312 41.087587 51.106487 -14.700328 8.720182 -26.482430 5.187280 -36.840644 -13.628745 0.000009 -0.000008 0.000001 -0.000001 0.000001 -14.009135 12.748171 -46.144072 49.541862 12.817848 -8.607911 -38.090558 -8.025969 38.235553 -10.407767 0.000066 0.000011 -0.000001 -0.000002 -0.000001 
5.369150 25.137661 -2.045357 23.906497 -79.847165 24.228498 1.185960 4.176069 3.733718 1.555127 3.451219 1.016179 0.000000 0.000000 0.000000 1.491295 3.510726 1.023370 -2.505827 8.602206 -1.279739 -2.965686 40.944682 -0.795751 -0.000000 -0.000001 -0.000000 0.633907 7.205945 -6.991792 0.000000 0.000000 0.000000 -4.027038 9.964035 -67.472072 -0.000071 -118.092987 -0.000065 -4.207154 -36.031707 21.229145 -9.674882 0.269254 1.575504 20.999832 31.142446 -3.192805 -14.544268 -16.014920 5.124831 -0.000002 0.000000 0.000001 -2.859094 3.300606 -72.091916 3.980167 5.544883 -71.321983 1.738108 4.165150 -45.286787 0.000001 -0.000002 -0.000002 -2.187332 6.173455 -74.345079 5.093729 5.802032 -82.550274 3.434245 5.330187 -65.565595 0.000001 -0.000000 0.000000 -3.012983 7.938807 -88.130484 5.701681 5.849162 -88.534558 2.458929 4.770225 -54.520226 0.000002 0.000002 0.000002 0.703608 12.600989 7.607016 0.000000 0.000000 0.000000 -10.772636 34.147558 49.737680 -0.000055 103.261061 0.000022 18.710984 12.211372 -37.120651 -6.752295 7.209114 -18.581260 21.063270 -37.069076 16.214053 -4.776254 10.827370 -21.818109 -0.000000 0.000001 0.000002 -3.543107 10.201704 38.788074 4.624836 -4.657057 89.601557 1.145491 -3.060894 41.027300 -0.000000 -0.000002 -0.000000 -5.052090 -1.654613 57.985424 3.608937 -4.537940 76.978281 1.316014 -3.246205 44.126283 -0.000001 0.000001 -0.000001 -3.875767 -2.912828 61.460781 4.473424 -4.653553 87.736396 1.055811 -2.954800 39.318233 0.000001 0.000000 0.000000 -30.236452 -20.240396 40.001413 48.704214 -14.351862 8.857220 -23.609032 1.252958 -37.585407 -13.760365 0.000014 0.000007 0.000001 -0.000000 0.000001 -11.705744 10.198289 -45.857853 48.016558 13.781199 -8.775441 -35.287971 -8.145419 38.554758 -13.678098 0.000094 0.000013 -0.000001 0.000001 -0.000000 
5.012846 25.841942 -2.021409 16.157417 -77.416055 16.457390 0.978468 4.223471 3.927013 1.364927 3.425544 0.933034 0.000000 0.000000 0.000000 1.299351 3.484998 0.928855 -2.094439 8.124941 -1.381037 -2.236921 38.340755 -0.194032 -0.000000 0.000000 -0.000000 0.623449 7.184063 -6.717675 0.000000 0.000000 0.000000 -3.255311 6.222750 -65.186301 -0.000010 -117.506356 -0.000016 -3.863569 -34.828542 20.605554 -9.674876 0.269256 1.575507 20.976995 31.061726 -3.185069 -14.566393 -16.090674 5.105789 -0.000000 -0.000001 -0.000002 -2.866261 3.298529 -72.009892 3.972225 5.542218 -71.239706 1.732168 4.159269 -45.204842 -0.000002 0.000001 -0.000000 -2.193124 6.161881 -74.264155 5.085293 5.800922 -82.466782 3.426632 5.326739 -65.483428 0.000002 0.000001 -0.000002 -3.022122 7.926207 -88.049744 5.693100 5.848942 -88.450233 2.452115 4.765376 -54.438230 0.000002 -0.000002 -0.000002 0.732054 11.989985 7.098541 0.000000 0.000000 0.000000 -9.801473 33.018931 50.192707 0.000007 104.960057 -0.000028 18.245361 11.392876 -37.011306 -6.752298 7.209116 -18.581260 21.015913 -36.993886 16.184919 -4.775338 10.906796 -21.805557 -0.000000 0.000001 0.000002 -3.546604 10.204949 38.706730 4.618146 -4.657016 89.519335 1.141126 -3.055860 40.945376 -0.000000 0.000000 0.000000 -5.052280 -1.640190 57.905702 3.602268 -4.536385 76.894208 1.311375 -3.241419 44.044461 0.000000 -0.000001 0.000000 -3.877024 -2.900499 61.380424 4.466673 -4.653271 87.652842 1.051583 -2.949649 39.236418 -0.000001 -0.000001 -0.000000 -32.762498 -19.172983 38.320025 45.348696 -14.099769 9.091548 -19.025285 -4.231775 -38.128264 -14.683624 0.000049 0.000010 0.000001 0.000000 -0.000000 -9.339318 7.176575 -45.262595 46.276888 14.890004 -8.840684 -30.881283 -8.040862 38.743753 -17.631896 0.000099 0.000001 0.000001 0.000002 0.000001 
